<svg width="129" height="129" viewBox="0 0 129 129" fill="none"
  xmlns="http://www.w3.org/2000/svg">
  <rect width="129" height="129" rx="18" fill="white"/>
  <path d="M34.0711 24.9958C34.5505 23.3381 35.4108 21.8155 36.5832 20.5493C37.7556 19.2832 39.2077 18.3086 40.8237 17.7034C42.4397 17.0981 44.1748 16.879 45.8905 17.0634C47.6062 17.2479 49.2551 17.8308 50.7055 18.7657L102.273 52.159C104.389 53.5307 106.119 55.4223 107.296 57.653C108.473 59.8837 109.058 62.379 108.995 64.9004C108.933 67.4218 108.225 69.885 106.939 72.0546C105.653 74.2243 103.832 76.0279 101.65 77.293L42.1346 111.763C39.893 113.061 37.3493 113.745 34.7594 113.747C32.1695 113.749 29.6246 113.069 27.381 111.775C25.1373 110.481 23.2739 108.62 21.9782 106.377C20.6825 104.135 20.0002 101.59 20 99.0004V35.4357C20.0012 33.447 20.5385 31.4953 21.5552 29.7862C22.572 28.0771 24.0307 26.6736 25.7778 25.7236C27.5249 24.7735 29.4958 24.312 31.4831 24.3875C33.4704 24.463 35.4005 25.0729 37.0705 26.1528L86.2259 57.9708C87.284 58.6559 88.1489 59.6008 88.7381 60.7151C89.3274 61.8295 89.6213 63.0762 89.5918 64.3364C89.5624 65.5966 89.2106 66.8282 88.5699 67.9138C87.9293 68.9995 87.0211 69.9028 85.9322 70.5378L44.7157 94.5682C43.5948 95.2216 42.3212 95.5675 41.0237 95.5709C39.7263 95.5743 38.4509 95.2352 37.3266 94.5876C36.2022 93.9401 35.2688 93.0073 34.6206 91.8833C33.9724 90.7594 33.6324 89.4842 33.635 88.1868V41.016C33.6351 40.8824 33.6715 40.7514 33.7402 40.6368C33.809 40.5222 33.9075 40.4285 34.0253 40.3654C34.1431 40.3024 34.2758 40.2725 34.4093 40.279C34.5427 40.2854 34.6719 40.3279 34.7831 40.4019L69.3245 63.2664C69.4314 63.3315 69.5196 63.4231 69.5808 63.5322C69.6421 63.6413 69.6742 63.7643 69.6742 63.8894C69.6742 64.0145 69.6421 64.1375 69.5808 64.2466C69.5196 64.3557 69.4314 64.4472 69.3245 64.5124L48.2045 76.9281C48.0927 76.9937 47.9656 77.0287 47.8359 77.0296C47.7062 77.0306 47.5786 76.9973 47.4659 76.9333C47.3531 76.8692 47.2592 76.7766 47.1936 76.6648C47.128 76.553 47.0929 76.4258 47.092 76.2962V48.4655" stroke="black" stroke-width="6" stroke-miterlimit="10"/>
  <path opacity="0.1" d="M31.61 37.75C31.485 37.6668 31.3399 37.6191 31.1899 37.6118C31.04 37.6046 30.8909 37.6382 30.7585 37.709C30.6262 37.7798 30.5155 37.8852 30.4382 38.0139C30.361 38.1426 30.3202 38.2899 30.32 38.44V47.9L30.64 48.15C30.7833 48.0397 30.9591 47.9799 31.14 47.9799C31.3209 47.9799 31.4966 48.0397 31.64 48.15L45.47 57.15V46.78L31.61 37.75Z" fill="#110E1E"/>
</svg>
